<svg width="128" height="128" viewBox="0 0 128 128" fill="none" xmlns="http://www.w3.org/2000/svg">
<g style="mix-blend-mode:luminosity">
<rect width="113.131" height="28.6611" rx="14.3306" transform="matrix(0.71196 -0.70222 0.71196 0.70222 0 108.278)" fill="#484848"/>
<path d="M72.3096 11.5327C73.5168 7.86804 78.7007 7.86805 79.9079 11.5327L86.8537 32.617C87.394 34.2572 88.9259 35.3654 90.6528 35.3654H113.011C116.899 35.3654 118.502 40.352 115.341 42.6168L97.3481 55.5107C95.9268 56.5292 95.3317 58.3528 95.8788 60.0136L102.774 80.9441C103.985 84.6197 99.7904 87.7012 96.6448 85.447L78.4387 72.4005C77.0458 71.4023 75.1718 71.4023 73.7788 72.4005L55.5727 85.447C52.4271 87.7012 48.2328 84.6197 49.4436 80.9441L56.3387 60.0136C56.8858 58.3528 56.2908 56.5292 54.8695 55.5107L36.8764 42.6168C33.7159 40.3519 35.3181 35.3654 39.2063 35.3654H61.5647C63.2916 35.3654 64.8236 34.2572 65.3639 32.617L72.3096 11.5327Z" fill="#6D6D6D"/>
</g>
</svg>
