<svg width="317" height="77" viewBox="0 0 317 77" fill="none" xmlns="http://www.w3.org/2000/svg">
    <rect y="6.5" width="64" height="64" rx="20" fill="url(#paint0_linear_18_5)" />
    <path
        d="M43.4193 20.358L43.2074 20.3782C41.2094 20.5686 39.244 19.7621 37.954 18.2242C35.1108 14.8345 29.8892 14.8345 27.046 18.2242C25.756 19.7621 23.7906 20.5686 21.7926 20.3782L21.5807 20.358C17.2408 19.9445 13.6042 23.6006 14.0336 27.938C14.2298 29.9207 13.4144 31.8707 11.8645 33.1222C8.43813 35.8887 8.43813 41.1113 11.8645 43.8778C13.4144 45.1293 14.2298 47.0793 14.0336 49.062C13.6042 53.3994 17.2408 57.0555 21.5807 56.642L21.7926 56.6218C23.7906 56.4314 25.756 57.2379 27.046 58.7758C29.8892 62.1655 35.1108 62.1655 37.954 58.7758C39.244 57.2379 41.2094 56.4314 43.2074 56.6218L43.4193 56.642C47.7592 57.0555 51.3958 53.3994 50.9664 49.062C50.7702 47.0793 51.5856 45.1293 53.1355 43.8778C56.5619 41.1113 56.5619 35.8887 53.1355 33.1222C51.5856 31.8707 50.7702 29.9207 50.9664 27.938C51.3958 23.6006 47.7592 19.9445 43.4193 20.358Z"
        fill="white" stroke="url(#paint1_linear_18_5)" />
    <path
        d="M41.384 23.7479L41.1721 23.768C39.5849 23.9186 38.0231 23.2792 36.9956 22.0596C34.6486 19.2741 30.3514 19.2741 28.0044 22.0596C26.9769 23.2792 25.415 23.9186 23.8279 23.768L23.616 23.7479C20.053 23.4099 17.0694 26.4134 17.4234 29.9736C17.5796 31.5448 16.9319 33.0903 15.7016 34.0792C12.8771 36.3497 12.8771 40.6503 15.7016 42.9208C16.9319 43.9097 17.5796 45.4552 17.4234 47.0264C17.0694 50.5866 20.053 53.5901 23.616 53.2521L23.8279 53.232C25.4151 53.0814 26.9769 53.7208 28.0044 54.9404C30.3514 57.7259 34.6486 57.7259 36.9956 54.9404C38.0231 53.7208 39.5849 53.0814 41.1721 53.232L41.384 53.2521C44.947 53.5901 47.9306 50.5866 47.5766 47.0264C47.4204 45.4552 48.0681 43.9097 49.2984 42.9208C52.1229 40.6503 52.1229 36.3497 49.2984 34.0792C48.0681 33.0903 47.4204 31.5448 47.5766 29.9736C47.9306 26.4134 44.947 23.4099 41.384 23.7479Z"
        fill="white" stroke="url(#paint2_linear_18_5)" />
    <g filter="url(#filter0_i_18_5)">
        <path
            d="M29.3394 26.3405C30.9768 24.3509 34.0232 24.3509 35.6606 26.3405V26.3405C36.5267 27.393 37.86 27.9453 39.2168 27.8135V27.8135C41.7814 27.5644 43.9356 29.7186 43.6865 32.2832V32.2832C43.5547 33.64 44.107 34.9733 45.1595 35.8394V35.8394C47.1491 37.4768 47.1491 40.5232 45.1595 42.1606V42.1606C44.107 43.0267 43.5547 44.36 43.6865 45.7168V45.7168C43.9356 48.2814 41.7814 50.4356 39.2168 50.1865V50.1865C37.86 50.0547 36.5267 50.607 35.6606 51.6595V51.6595C34.0232 53.6491 30.9768 53.6491 29.3394 51.6595V51.6595C28.4733 50.607 27.14 50.0547 25.7832 50.1865V50.1865C23.2186 50.4356 21.0644 48.2814 21.3135 45.7168V45.7168C21.4453 44.36 20.893 43.0267 19.8405 42.1606V42.1606C17.8509 40.5232 17.8509 37.4768 19.8405 35.8394V35.8394C20.893 34.9733 21.4453 33.64 21.3135 32.2832V32.2832C21.0644 29.7186 23.2186 27.5644 25.7832 27.8135V27.8135C27.14 27.9453 28.4733 27.393 29.3394 26.3405V26.3405Z"
            fill="white" />
    </g>
    <path
        d="M28.9534 26.0228C28.193 26.9467 27.0226 27.4315 25.8316 27.3159C22.9536 27.0364 20.5364 29.4536 20.8159 32.3316C20.9315 33.5226 20.4467 34.693 19.5228 35.4534C17.2901 37.2907 17.2901 40.7093 19.5228 42.5466C20.4467 43.307 20.9315 44.4774 20.8159 45.6684C20.5364 48.5464 22.9536 50.9636 25.8316 50.6841C27.0226 50.5685 28.193 51.0533 28.9534 51.9772C30.7907 54.2099 34.2093 54.2099 36.0466 51.9772C36.807 51.0533 37.9774 50.5685 39.1684 50.6841C42.0464 50.9636 44.4636 48.5464 44.1841 45.6684C44.0685 44.4774 44.5533 43.307 45.4772 42.5466C47.7099 40.7093 47.7099 37.2907 45.4772 35.4534C44.5533 34.693 44.0685 33.5226 44.1841 32.3316C44.4636 29.4536 42.0464 27.0364 39.1684 27.3159C37.9774 27.4315 36.807 26.9467 36.0466 26.0228C34.2093 23.7901 30.7907 23.7901 28.9534 26.0228Z"
        stroke="url(#paint3_linear_18_5)" />
    <path
        d="M79.053 59V17.592H102.925C108.472 17.592 112.674 18.5307 115.533 20.408C118.434 22.2427 119.885 24.9947 119.885 28.664C119.885 31.0107 119.309 32.8667 118.157 34.232C117.005 35.5547 115.362 36.536 113.229 37.176C111.138 37.816 108.664 38.2213 105.805 38.392L106.061 37.944C108.152 37.9867 110.114 38.136 111.949 38.392C113.826 38.648 115.469 39.1173 116.877 39.8C118.285 40.4827 119.394 41.4427 120.205 42.68C121.016 43.8747 121.421 45.4533 121.421 47.416C121.421 49.976 120.738 52.1093 119.373 53.816C118.008 55.48 116.109 56.7387 113.677 57.592C111.245 58.4453 108.429 58.9147 105.229 59H79.053ZM87.565 51.96H104.333C107.021 51.96 109.09 51.5333 110.541 50.68C111.992 49.784 112.717 48.376 112.717 46.456C112.717 45.048 112.29 44.024 111.437 43.384C110.584 42.744 109.453 42.36 108.045 42.232C106.637 42.0613 105.122 41.976 103.501 41.976H87.565V51.96ZM87.565 35.128H102.605C105.293 35.128 107.362 34.744 108.813 33.976C110.264 33.1653 110.989 31.8 110.989 29.88C110.989 27.96 110.264 26.616 108.813 25.848C107.362 25.0373 105.442 24.632 103.053 24.632H87.565V35.128ZM135.08 49.976V42.872H162.472V49.976H135.08ZM124.776 59L144.232 17.592H153.448L173.096 59H163.816L146.792 21.688H150.888L133.992 59H124.776ZM179.116 59V17.592H202.988C208.534 17.592 212.737 18.5307 215.596 20.408C218.497 22.2427 219.948 24.9947 219.948 28.664C219.948 31.0107 219.372 32.8667 218.22 34.232C217.068 35.5547 215.425 36.536 213.292 37.176C211.201 37.816 208.726 38.2213 205.868 38.392L206.124 37.944C208.214 37.9867 210.177 38.136 212.012 38.392C213.889 38.648 215.532 39.1173 216.94 39.8C218.348 40.4827 219.457 41.4427 220.268 42.68C221.078 43.8747 221.484 45.4533 221.484 47.416C221.484 49.976 220.801 52.1093 219.436 53.816C218.07 55.48 216.172 56.7387 213.74 57.592C211.308 58.4453 208.492 58.9147 205.292 59H179.116ZM187.628 51.96H204.396C207.084 51.96 209.153 51.5333 210.604 50.68C212.054 49.784 212.78 48.376 212.78 46.456C212.78 45.048 212.353 44.024 211.5 43.384C210.646 42.744 209.516 42.36 208.108 42.232C206.7 42.0613 205.185 41.976 203.564 41.976H187.628V51.96ZM187.628 35.128H202.668C205.356 35.128 207.425 34.744 208.876 33.976C210.326 33.1653 211.052 31.8 211.052 29.88C211.052 27.96 210.326 26.616 208.876 25.848C207.425 25.0373 205.505 24.632 203.116 24.632H187.628V35.128ZM230.269 17.592H238.781V59H230.269V17.592ZM273.483 17.592C278.134 17.592 282.016 18.1467 285.131 19.256C288.246 20.3653 290.72 21.88 292.555 23.8C294.432 25.6773 295.755 27.8533 296.523 30.328C297.334 32.8027 297.739 35.4053 297.739 38.136C297.739 40.8667 297.291 43.4907 296.395 46.008C295.542 48.5253 294.155 50.7653 292.235 52.728C290.358 54.648 287.862 56.184 284.747 57.336C281.675 58.4453 277.92 59 273.483 59H249.803V17.592H273.483ZM258.315 51.704H273.291C276.363 51.704 278.902 51.3413 280.907 50.616C282.955 49.848 284.576 48.824 285.771 47.544C286.966 46.264 287.819 44.8133 288.331 43.192C288.843 41.5707 289.099 39.8853 289.099 38.136C289.099 36.3867 288.843 34.7227 288.331 33.144C287.819 31.5653 286.966 30.1573 285.771 28.92C284.576 27.6827 282.955 26.7013 280.907 25.976C278.902 25.2507 276.363 24.888 273.291 24.888H258.315V51.704ZM307.269 17.592H315.781V59H307.269V17.592Z"
        fill="white" />
    <defs>
        <filter id="filter0_i_18_5" x="17.3483" y="23.8483" width="30.3035" height="30.3034"
            filterUnits="userSpaceOnUse" color-interpolation-filters="sRGB">
            <feFlood flood-opacity="0" result="BackgroundImageFix" />
            <feBlend mode="normal" in="SourceGraphic" in2="BackgroundImageFix" result="shape" />
            <feColorMatrix in="SourceAlpha" type="matrix" values="0 0 0 0 0 0 0 0 0 0 0 0 0 0 0 0 0 0 127 0"
                result="hardAlpha" />
            <feOffset />
            <feGaussianBlur stdDeviation="2.5" />
            <feComposite in2="hardAlpha" operator="arithmetic" k2="-1" k3="1" />
            <feColorMatrix type="matrix" values="0 0 0 0 0 0 0 0 0 0 0 0 0 0 0 0 0 0 0.5 0" />
            <feBlend mode="normal" in2="shape" result="effect1_innerShadow_18_5" />
        </filter>
        <linearGradient id="paint0_linear_18_5" x1="32" y1="6.5" x2="32" y2="70.5" gradientUnits="userSpaceOnUse">
            <stop stop-color="#6D3CFE" />
            <stop offset="1" stop-color="#523E8D" />
        </linearGradient>
        <linearGradient id="paint1_linear_18_5" x1="32.5" y1="12.5" x2="32.5" y2="64.5" gradientUnits="userSpaceOnUse">
            <stop stop-color="#794CFF" />
            <stop offset="1" stop-color="#BAA4FF" />
        </linearGradient>
        <linearGradient id="paint2_linear_18_5" x1="32.5" y1="17.5" x2="32.5" y2="59.5" gradientUnits="userSpaceOnUse">
            <stop stop-color="#794CFF" />
            <stop offset="1" stop-color="#BAA4FF" />
        </linearGradient>
        <linearGradient id="paint3_linear_18_5" x1="32.5" y1="22.5" x2="32.5" y2="55.5" gradientUnits="userSpaceOnUse">
            <stop stop-color="#794CFF" />
            <stop offset="1" stop-color="#BAA4FF" />
        </linearGradient>
    </defs>
</svg>