<svg width="66" height="65" viewBox="0 0 66 65" fill="none" xmlns="http://www.w3.org/2000/svg">
    <rect x="1" y="0.5" width="64" height="64" rx="20" stroke="#9D7CFF" />
    <path
        d="M38.954 12.2242C36.1108 8.83451 30.8892 8.83451 28.046 12.2242C26.756 13.7621 24.7906 14.5686 22.7926 14.3782L22.5807 14.358C18.2408 13.9445 14.6042 17.6006 15.0336 21.938C15.2298 23.9207 14.4144 25.8707 12.8645 27.1222C9.43813 29.8887 9.43813 35.1113 12.8645 37.8778C14.4144 39.1293 15.2298 41.0793 15.0336 43.062C14.6042 47.3994 18.2408 51.0555 22.5807 50.642L22.7926 50.6218C24.7906 50.4314 26.756 51.2379 28.046 52.7758C30.8892 56.1655 36.1108 56.1655 38.954 52.7758C40.244 51.2379 42.2094 50.4314 44.2074 50.6218L44.4193 50.642C48.7592 51.0555 52.3958 47.3994 51.9664 43.062C51.7702 41.0793 52.5856 39.1293 54.1355 37.8778C57.5619 35.1113 57.5619 29.8887 54.1355 27.1222C52.5856 25.8707 51.7702 23.9207 51.9664 21.938C52.3958 17.6006 48.7592 13.9445 44.4193 14.358L44.2074 14.3782C42.2094 14.5686 40.244 13.7621 38.954 12.2242Z"
        stroke="url(#paint0_linear_18_6)" />
    <path
        d="M37.9956 16.0596C35.6486 13.2741 31.3514 13.2741 29.0044 16.0596C27.9769 17.2792 26.415 17.9186 24.8279 17.768L24.616 17.7479C21.053 17.4099 18.0694 20.4134 18.4234 23.9736C18.5796 25.5448 17.9319 27.0903 16.7016 28.0792C13.8771 30.3497 13.8771 34.6503 16.7016 36.9208C17.9319 37.9097 18.5796 39.4552 18.4234 41.0264C18.0694 44.5866 21.053 47.5901 24.616 47.2521L24.8279 47.232C26.4151 47.0814 27.9769 47.7208 29.0044 48.9404C31.3514 51.7259 35.6486 51.7259 37.9956 48.9404C39.0231 47.7208 40.5849 47.0814 42.1721 47.232L42.384 47.2521C45.947 47.5901 48.9306 44.5866 48.5766 41.0264C48.4204 39.4552 49.0681 37.9097 50.2984 36.9208C53.1229 34.6503 53.1229 30.3497 50.2984 28.0792C49.0681 27.0903 48.4204 25.5448 48.5766 23.9736C48.9306 20.4134 45.947 17.4099 42.384 17.7479L42.1721 17.768C40.5849 17.9186 39.0231 17.2792 37.9956 16.0596Z"
        stroke="url(#paint1_linear_18_6)" />
    <g filter="url(#filter0_i_18_6)">
        <path
            d="M37.0466 20.0228C35.2093 17.7901 31.7907 17.7901 29.9534 20.0228C29.193 20.9467 28.0226 21.4315 26.8316 21.3159C23.9536 21.0364 21.5364 23.4536 21.8159 26.3316C21.9315 27.5226 21.4467 28.693 20.5228 29.4534C18.2901 31.2907 18.2901 34.7093 20.5228 36.5466C21.4467 37.307 21.9315 38.4774 21.8159 39.6684C21.5364 42.5464 23.9536 44.9636 26.8316 44.6841C28.0226 44.5685 29.193 45.0533 29.9534 45.9772C31.7907 48.2099 35.2093 48.2099 37.0466 45.9772C37.807 45.0533 38.9774 44.5685 40.1684 44.6841C43.0464 44.9636 45.4636 42.5464 45.1841 39.6684C45.0685 38.4774 45.5533 37.307 46.4772 36.5466C48.7099 34.7093 48.7099 31.2907 46.4772 29.4534C45.5533 28.693 45.0685 27.5226 45.1841 26.3316C45.4636 23.4536 43.0464 21.0364 40.1684 21.3159C38.9774 21.4315 37.807 20.9467 37.0466 20.0228Z"
            stroke="url(#paint2_linear_18_6)" />
    </g>
    <defs>
        <filter id="filter0_i_18_6" x="18.3483" y="17.8483" width="30.3035" height="30.3034"
            filterUnits="userSpaceOnUse" color-interpolation-filters="sRGB">
            <feFlood flood-opacity="0" result="BackgroundImageFix" />
            <feBlend mode="normal" in="SourceGraphic" in2="BackgroundImageFix" result="shape" />
            <feColorMatrix in="SourceAlpha" type="matrix" values="0 0 0 0 0 0 0 0 0 0 0 0 0 0 0 0 0 0 127 0"
                result="hardAlpha" />
            <feOffset />
            <feGaussianBlur stdDeviation="2.5" />
            <feComposite in2="hardAlpha" operator="arithmetic" k2="-1" k3="1" />
            <feColorMatrix type="matrix" values="0 0 0 0 0 0 0 0 0 0 0 0 0 0 0 0 0 0 0.5 0" />
            <feBlend mode="normal" in2="shape" result="effect1_innerShadow_18_6" />
        </filter>
        <linearGradient id="paint0_linear_18_6" x1="33.5" y1="6.5" x2="33.5" y2="58.5" gradientUnits="userSpaceOnUse">
            <stop stop-color="#794CFF" />
            <stop offset="1" stop-color="#BAA4FF" />
        </linearGradient>
        <linearGradient id="paint1_linear_18_6" x1="33.5" y1="11.5" x2="33.5" y2="53.5" gradientUnits="userSpaceOnUse">
            <stop stop-color="#794CFF" />
            <stop offset="1" stop-color="#BAA4FF" />
        </linearGradient>
        <linearGradient id="paint2_linear_18_6" x1="33.5" y1="16.5" x2="33.5" y2="49.5" gradientUnits="userSpaceOnUse">
            <stop stop-color="#794CFF" />
            <stop offset="1" stop-color="#BAA4FF" />
        </linearGradient>
    </defs>
</svg>