<svg width="318" height="77" viewBox="0 0 318 77" fill="none" xmlns="http://www.w3.org/2000/svg">
    <rect x="1" y="6.5" width="64" height="64" rx="20" fill="url(#paint0_linear_12_12)" stroke="#9D7CFF" />
    <path
        d="M38.954 18.2242C36.1108 14.8345 30.8892 14.8345 28.046 18.2242C26.756 19.7621 24.7906 20.5686 22.7926 20.3782L22.5807 20.358C18.2408 19.9445 14.6042 23.6006 15.0336 27.938C15.2298 29.9207 14.4144 31.8707 12.8645 33.1222C9.43813 35.8887 9.43813 41.1113 12.8645 43.8778C14.4144 45.1293 15.2298 47.0793 15.0336 49.062C14.6042 53.3994 18.2408 57.0555 22.5807 56.642L22.7926 56.6218C24.7906 56.4314 26.756 57.2379 28.046 58.7758C30.8892 62.1655 36.1108 62.1655 38.954 58.7758C40.244 57.2379 42.2094 56.4314 44.2074 56.6218L44.4193 56.642C48.7592 57.0555 52.3958 53.3994 51.9664 49.062C51.7702 47.0793 52.5856 45.1293 54.1355 43.8778C57.5619 41.1113 57.5619 35.8887 54.1355 33.1222C52.5856 31.8707 51.7702 29.9207 51.9664 27.938C52.3958 23.6006 48.7592 19.9445 44.4193 20.358L44.2074 20.3782C42.2094 20.5686 40.244 19.7621 38.954 18.2242Z"
        fill="white" stroke="url(#paint1_linear_12_12)" />
    <path
        d="M37.9956 22.0596C35.6486 19.2741 31.3514 19.2741 29.0044 22.0596C27.9769 23.2792 26.415 23.9186 24.8279 23.768L24.616 23.7479C21.053 23.4099 18.0694 26.4134 18.4234 29.9736C18.5796 31.5448 17.9319 33.0903 16.7016 34.0792C13.8771 36.3497 13.8771 40.6503 16.7016 42.9208C17.9319 43.9097 18.5796 45.4552 18.4234 47.0264C18.0694 50.5866 21.053 53.5901 24.616 53.2521L24.8279 53.232C26.4151 53.0814 27.9769 53.7208 29.0044 54.9404C31.3514 57.7259 35.6486 57.7259 37.9956 54.9404C39.0231 53.7208 40.5849 53.0814 42.1721 53.232L42.384 53.2521C45.947 53.5901 48.9306 50.5866 48.5766 47.0264C48.4204 45.4552 49.0681 43.9097 50.2984 42.9208C53.1229 40.6503 53.1229 36.3497 50.2984 34.0792C49.0681 33.0903 48.4204 31.5448 48.5766 29.9736C48.9306 26.4134 45.947 23.4099 42.384 23.7479L42.1721 23.768C40.5849 23.9186 39.0231 23.2792 37.9956 22.0596Z"
        fill="white" stroke="url(#paint2_linear_12_12)" />
    <g filter="url(#filter0_i_12_12)">
        <path
            d="M30.3394 26.3405C31.9768 24.3509 35.0232 24.3509 36.6606 26.3405C37.5267 27.393 38.86 27.9453 40.2168 27.8135C42.7814 27.5644 44.9356 29.7186 44.6865 32.2832C44.5547 33.64 45.107 34.9733 46.1595 35.8394C48.1491 37.4768 48.1491 40.5232 46.1595 42.1606C45.107 43.0267 44.5547 44.36 44.6865 45.7168C44.9356 48.2814 42.7814 50.4356 40.2168 50.1865C38.86 50.0547 37.5267 50.607 36.6606 51.6595C35.0232 53.6491 31.9768 53.6491 30.3394 51.6595C29.4733 50.607 28.14 50.0547 26.7832 50.1865C24.2186 50.4356 22.0644 48.2814 22.3135 45.7168C22.4453 44.36 21.893 43.0267 20.8405 42.1606C18.8509 40.5232 18.8509 37.4768 20.8405 35.8394C21.893 34.9733 22.4453 33.64 22.3135 32.2832C22.0644 29.7186 24.2186 27.5644 26.7832 27.8135C28.14 27.9453 29.4733 27.393 30.3394 26.3405Z"
            fill="white" />
    </g>
    <path
        d="M37.0466 26.0228C35.2093 23.7901 31.7907 23.7901 29.9534 26.0228C29.193 26.9467 28.0226 27.4315 26.8316 27.3159C23.9536 27.0364 21.5364 29.4536 21.8159 32.3316C21.9315 33.5226 21.4467 34.693 20.5228 35.4534C18.2901 37.2907 18.2901 40.7093 20.5228 42.5466C21.4467 43.307 21.9315 44.4774 21.8159 45.6684C21.5364 48.5464 23.9536 50.9636 26.8316 50.6841C28.0226 50.5685 29.193 51.0533 29.9534 51.9772C31.7907 54.2099 35.2093 54.2099 37.0466 51.9772C37.807 51.0533 38.9774 50.5685 40.1684 50.6841C43.0464 50.9636 45.4636 48.5464 45.1841 45.6684C45.0685 44.4774 45.5533 43.307 46.4772 42.5466C48.7099 40.7093 48.7099 37.2907 46.4772 35.4534C45.5533 34.693 45.0685 33.5226 45.1841 32.3316C45.4636 29.4536 43.0464 27.0364 40.1684 27.3159C38.9774 27.4315 37.807 26.9467 37.0466 26.0228Z"
        stroke="url(#paint3_linear_12_12)" />
    <path
        d="M80.053 59V17.592H103.925C109.472 17.592 113.674 18.5307 116.533 20.408C119.434 22.2427 120.885 24.9947 120.885 28.664C120.885 31.0107 120.309 32.8667 119.157 34.232C118.005 35.5547 116.362 36.536 114.229 37.176C112.138 37.816 109.664 38.2213 106.805 38.392L107.061 37.944C109.152 37.9867 111.114 38.136 112.949 38.392C114.826 38.648 116.469 39.1173 117.877 39.8C119.285 40.4827 120.394 41.4427 121.205 42.68C122.016 43.8747 122.421 45.4533 122.421 47.416C122.421 49.976 121.738 52.1093 120.373 53.816C119.008 55.48 117.109 56.7387 114.677 57.592C112.245 58.4453 109.429 58.9147 106.229 59H80.053ZM88.565 51.96H105.333C108.021 51.96 110.09 51.5333 111.541 50.68C112.992 49.784 113.717 48.376 113.717 46.456C113.717 45.048 113.29 44.024 112.437 43.384C111.584 42.744 110.453 42.36 109.045 42.232C107.637 42.0613 106.122 41.976 104.501 41.976H88.565V51.96ZM88.565 35.128H103.605C106.293 35.128 108.362 34.744 109.813 33.976C111.264 33.1653 111.989 31.8 111.989 29.88C111.989 27.96 111.264 26.616 109.813 25.848C108.362 25.0373 106.442 24.632 104.053 24.632H88.565V35.128ZM136.08 49.976V42.872H163.472V49.976H136.08ZM125.776 59L145.232 17.592H154.448L174.096 59H164.816L147.792 21.688H151.888L134.992 59H125.776ZM180.116 59V17.592H203.988C209.534 17.592 213.737 18.5307 216.596 20.408C219.497 22.2427 220.948 24.9947 220.948 28.664C220.948 31.0107 220.372 32.8667 219.22 34.232C218.068 35.5547 216.425 36.536 214.292 37.176C212.201 37.816 209.726 38.2213 206.868 38.392L207.124 37.944C209.214 37.9867 211.177 38.136 213.012 38.392C214.889 38.648 216.532 39.1173 217.94 39.8C219.348 40.4827 220.457 41.4427 221.268 42.68C222.078 43.8747 222.484 45.4533 222.484 47.416C222.484 49.976 221.801 52.1093 220.436 53.816C219.07 55.48 217.172 56.7387 214.74 57.592C212.308 58.4453 209.492 58.9147 206.292 59H180.116ZM188.628 51.96H205.396C208.084 51.96 210.153 51.5333 211.604 50.68C213.054 49.784 213.78 48.376 213.78 46.456C213.78 45.048 213.353 44.024 212.5 43.384C211.646 42.744 210.516 42.36 209.108 42.232C207.7 42.0613 206.185 41.976 204.564 41.976H188.628V51.96ZM188.628 35.128H203.668C206.356 35.128 208.425 34.744 209.876 33.976C211.326 33.1653 212.052 31.8 212.052 29.88C212.052 27.96 211.326 26.616 209.876 25.848C208.425 25.0373 206.505 24.632 204.116 24.632H188.628V35.128ZM231.269 17.592H239.781V59H231.269V17.592ZM274.483 17.592C279.134 17.592 283.016 18.1467 286.131 19.256C289.246 20.3653 291.72 21.88 293.555 23.8C295.432 25.6773 296.755 27.8533 297.523 30.328C298.334 32.8027 298.739 35.4053 298.739 38.136C298.739 40.8667 298.291 43.4907 297.395 46.008C296.542 48.5253 295.155 50.7653 293.235 52.728C291.358 54.648 288.862 56.184 285.747 57.336C282.675 58.4453 278.92 59 274.483 59H250.803V17.592H274.483ZM259.315 51.704H274.291C277.363 51.704 279.902 51.3413 281.907 50.616C283.955 49.848 285.576 48.824 286.771 47.544C287.966 46.264 288.819 44.8133 289.331 43.192C289.843 41.5707 290.099 39.8853 290.099 38.136C290.099 36.3867 289.843 34.7227 289.331 33.144C288.819 31.5653 287.966 30.1573 286.771 28.92C285.576 27.6827 283.955 26.7013 281.907 25.976C279.902 25.2507 277.363 24.888 274.291 24.888H259.315V51.704ZM308.269 17.592H316.781V59H308.269V17.592Z"
        fill="black" />
    <defs>
        <filter id="filter0_i_12_12" x="18.3483" y="23.8483" width="30.3035" height="30.3034"
            filterUnits="userSpaceOnUse" color-interpolation-filters="sRGB">
            <feFlood flood-opacity="0" result="BackgroundImageFix" />
            <feBlend mode="normal" in="SourceGraphic" in2="BackgroundImageFix" result="shape" />
            <feColorMatrix in="SourceAlpha" type="matrix" values="0 0 0 0 0 0 0 0 0 0 0 0 0 0 0 0 0 0 127 0"
                result="hardAlpha" />
            <feOffset />
            <feGaussianBlur stdDeviation="2.5" />
            <feComposite in2="hardAlpha" operator="arithmetic" k2="-1" k3="1" />
            <feColorMatrix type="matrix" values="0 0 0 0 0 0 0 0 0 0 0 0 0 0 0 0 0 0 0.5 0" />
            <feBlend mode="normal" in2="shape" result="effect1_innerShadow_12_12" />
        </filter>
        <linearGradient id="paint0_linear_12_12" x1="33" y1="6.5" x2="33" y2="70.5" gradientUnits="userSpaceOnUse">
            <stop stop-color="#6D3CFE" />
            <stop offset="1" stop-color="#523E8D" />
        </linearGradient>
        <linearGradient id="paint1_linear_12_12" x1="33.5" y1="12.5" x2="33.5" y2="64.5" gradientUnits="userSpaceOnUse">
            <stop stop-color="#794CFF" />
            <stop offset="1" stop-color="#BAA4FF" />
        </linearGradient>
        <linearGradient id="paint2_linear_12_12" x1="33.5" y1="17.5" x2="33.5" y2="59.5" gradientUnits="userSpaceOnUse">
            <stop stop-color="#794CFF" />
            <stop offset="1" stop-color="#BAA4FF" />
        </linearGradient>
        <linearGradient id="paint3_linear_12_12" x1="33.5" y1="22.5" x2="33.5" y2="55.5" gradientUnits="userSpaceOnUse">
            <stop stop-color="#794CFF" />
            <stop offset="1" stop-color="#BAA4FF" />
        </linearGradient>
    </defs>
</svg>