<svg width="64" height="65" viewBox="0 0 64 65" fill="none" xmlns="http://www.w3.org/2000/svg">
    <rect y="0.5" width="64" height="64" rx="20" fill="url(#paint0_linear_45_2)" />
    <path
        d="M43.4193 14.358L43.2074 14.3782C41.2094 14.5686 39.244 13.7621 37.954 12.2242C35.1108 8.83451 29.8892 8.83451 27.046 12.2242C25.756 13.7621 23.7906 14.5686 21.7926 14.3782L21.5807 14.358C17.2408 13.9445 13.6042 17.6006 14.0336 21.938C14.2298 23.9207 13.4144 25.8707 11.8645 27.1222C8.43813 29.8887 8.43813 35.1113 11.8645 37.8778C13.4144 39.1293 14.2298 41.0793 14.0336 43.062C13.6042 47.3994 17.2408 51.0555 21.5807 50.642L21.7926 50.6218C23.7906 50.4314 25.756 51.2379 27.046 52.7758C29.8892 56.1655 35.1108 56.1655 37.954 52.7758C39.244 51.2379 41.2094 50.4314 43.2074 50.6218L43.4193 50.642C47.7592 51.0555 51.3958 47.3994 50.9664 43.062C50.7702 41.0793 51.5856 39.1293 53.1355 37.8778C56.5619 35.1113 56.5619 29.8887 53.1355 27.1222C51.5856 25.8707 50.7702 23.9207 50.9664 21.938C51.3958 17.6006 47.7592 13.9445 43.4193 14.358Z"
        fill="white" stroke="url(#paint1_linear_45_2)" />
    <path
        d="M41.384 17.7479L41.1721 17.768C39.5849 17.9186 38.0231 17.2792 36.9956 16.0596C34.6486 13.2741 30.3514 13.2741 28.0044 16.0596C26.9769 17.2792 25.415 17.9186 23.8279 17.768L23.616 17.7479C20.053 17.4099 17.0694 20.4134 17.4234 23.9736C17.5796 25.5448 16.9319 27.0903 15.7016 28.0792C12.8771 30.3497 12.8771 34.6503 15.7016 36.9208C16.9319 37.9097 17.5796 39.4552 17.4234 41.0264C17.0694 44.5866 20.053 47.5901 23.616 47.2521L23.8279 47.232C25.4151 47.0814 26.9769 47.7208 28.0044 48.9404C30.3514 51.7259 34.6486 51.7259 36.9956 48.9404C38.0231 47.7208 39.5849 47.0814 41.1721 47.232L41.384 47.2521C44.947 47.5901 47.9306 44.5866 47.5766 41.0264C47.4204 39.4552 48.0681 37.9097 49.2984 36.9208C52.1229 34.6503 52.1229 30.3497 49.2984 28.0792C48.0681 27.0903 47.4204 25.5448 47.5766 23.9736C47.9306 20.4134 44.947 17.4099 41.384 17.7479Z"
        fill="white" stroke="url(#paint2_linear_45_2)" />
    <g filter="url(#filter0_i_45_2)">
        <path
            d="M29.3394 20.3405C30.9768 18.3509 34.0232 18.3509 35.6606 20.3405V20.3405C36.5267 21.393 37.86 21.9453 39.2168 21.8135V21.8135C41.7814 21.5644 43.9356 23.7186 43.6865 26.2832V26.2832C43.5547 27.64 44.107 28.9733 45.1595 29.8394V29.8394C47.1491 31.4768 47.1491 34.5232 45.1595 36.1606V36.1606C44.107 37.0267 43.5547 38.36 43.6865 39.7168V39.7168C43.9356 42.2814 41.7814 44.4356 39.2168 44.1865V44.1865C37.86 44.0547 36.5267 44.607 35.6606 45.6595V45.6595C34.0232 47.6491 30.9768 47.6491 29.3394 45.6595V45.6595C28.4733 44.607 27.14 44.0547 25.7832 44.1865V44.1865C23.2186 44.4356 21.0644 42.2814 21.3135 39.7168V39.7168C21.4453 38.36 20.893 37.0267 19.8405 36.1606V36.1606C17.8509 34.5232 17.8509 31.4768 19.8405 29.8394V29.8394C20.893 28.9733 21.4453 27.64 21.3135 26.2832V26.2832C21.0644 23.7186 23.2186 21.5644 25.7832 21.8135V21.8135C27.14 21.9453 28.4733 21.393 29.3394 20.3405V20.3405Z"
            fill="white" />
    </g>
    <path
        d="M28.9534 20.0228C28.193 20.9467 27.0226 21.4315 25.8316 21.3159C22.9536 21.0364 20.5364 23.4536 20.8159 26.3316C20.9315 27.5226 20.4467 28.693 19.5228 29.4534C17.2901 31.2907 17.2901 34.7093 19.5228 36.5466C20.4467 37.307 20.9315 38.4774 20.8159 39.6684C20.5364 42.5464 22.9536 44.9636 25.8316 44.6841C27.0226 44.5685 28.193 45.0533 28.9534 45.9772C30.7907 48.2099 34.2093 48.2099 36.0466 45.9772C36.807 45.0533 37.9774 44.5685 39.1684 44.6841C42.0464 44.9636 44.4636 42.5464 44.1841 39.6684C44.0685 38.4774 44.5533 37.307 45.4772 36.5466C47.7099 34.7093 47.7099 31.2907 45.4772 29.4534C44.5533 28.693 44.0685 27.5226 44.1841 26.3316C44.4636 23.4536 42.0464 21.0364 39.1684 21.3159C37.9774 21.4315 36.807 20.9467 36.0466 20.0228C34.2093 17.7901 30.7907 17.7901 28.9534 20.0228Z"
        stroke="url(#paint3_linear_45_2)" />
    <defs>
        <filter id="filter0_i_45_2" x="17.3483" y="17.8483" width="30.3035" height="30.3034"
            filterUnits="userSpaceOnUse" color-interpolation-filters="sRGB">
            <feFlood flood-opacity="0" result="BackgroundImageFix" />
            <feBlend mode="normal" in="SourceGraphic" in2="BackgroundImageFix" result="shape" />
            <feColorMatrix in="SourceAlpha" type="matrix" values="0 0 0 0 0 0 0 0 0 0 0 0 0 0 0 0 0 0 127 0"
                result="hardAlpha" />
            <feOffset />
            <feGaussianBlur stdDeviation="2.5" />
            <feComposite in2="hardAlpha" operator="arithmetic" k2="-1" k3="1" />
            <feColorMatrix type="matrix" values="0 0 0 0 0 0 0 0 0 0 0 0 0 0 0 0 0 0 0.5 0" />
            <feBlend mode="normal" in2="shape" result="effect1_innerShadow_45_2" />
        </filter>
        <linearGradient id="paint0_linear_45_2" x1="32" y1="0.5" x2="32" y2="64.5" gradientUnits="userSpaceOnUse">
            <stop stop-color="#6D3CFE" />
            <stop offset="1" stop-color="#523E8D" />
        </linearGradient>
        <linearGradient id="paint1_linear_45_2" x1="32.5" y1="6.5" x2="32.5" y2="58.5" gradientUnits="userSpaceOnUse">
            <stop stop-color="#794CFF" />
            <stop offset="1" stop-color="#BAA4FF" />
        </linearGradient>
        <linearGradient id="paint2_linear_45_2" x1="32.5" y1="11.5" x2="32.5" y2="53.5" gradientUnits="userSpaceOnUse">
            <stop stop-color="#794CFF" />
            <stop offset="1" stop-color="#BAA4FF" />
        </linearGradient>
        <linearGradient id="paint3_linear_45_2" x1="32.5" y1="16.5" x2="32.5" y2="49.5" gradientUnits="userSpaceOnUse">
            <stop stop-color="#794CFF" />
            <stop offset="1" stop-color="#BAA4FF" />
        </linearGradient>
    </defs>
</svg>