<svg width="332" height="85" viewBox="0 0 332 85" fill="none" xmlns="http://www.w3.org/2000/svg">
<rect x="4.43219" y="67.0714" width="77.9271" height="19.7423" rx="9.87115" transform="rotate(-45 4.43219 67.0714)" fill="#4F359E"/>
<path d="M52.6958 3.67685C53.8932 -0.00838835 59.1068 -0.00839574 60.3042 3.67685L63.5722 13.7346C64.1077 15.3827 65.6435 16.4985 67.3764 16.4985H77.9518C81.8267 16.4985 83.4378 21.457 80.3029 23.7346L71.7473 29.9506C70.3453 30.9692 69.7587 32.7747 70.2942 34.4228L73.5621 44.4805C74.7596 48.1658 70.5416 51.2303 67.4068 48.9527L58.8511 42.7366C57.4492 41.7181 55.5508 41.7181 54.1489 42.7366L45.5932 48.9527C42.4584 51.2303 38.2404 48.1658 39.4378 44.4805L42.7058 34.4228C43.2413 32.7747 42.6547 30.9692 41.2527 29.9506L32.6971 23.7346C29.5622 21.457 31.1733 16.4985 35.0482 16.4985H45.6236C47.3565 16.4985 48.8923 15.3827 49.4278 13.7346L52.6958 3.67685Z" fill="#794CFF"/>
<path d="M92.9801 67V25.592H116.852C122.399 25.592 126.601 26.5307 129.46 28.408C132.361 30.2427 133.812 32.9947 133.812 36.664C133.812 39.0107 133.236 40.8667 132.084 42.232C130.932 43.5547 129.289 44.536 127.156 45.176C125.065 45.816 122.591 46.2213 119.732 46.392L119.988 45.944C122.079 45.9867 124.041 46.136 125.876 46.392C127.753 46.648 129.396 47.1173 130.804 47.8C132.212 48.4827 133.321 49.4427 134.132 50.68C134.943 51.8747 135.348 53.4533 135.348 55.416C135.348 57.976 134.665 60.1093 133.3 61.816C131.935 63.48 130.036 64.7387 127.604 65.592C125.172 66.4453 122.356 66.9147 119.156 67H92.9801ZM101.492 59.96H118.26C120.948 59.96 123.017 59.5333 124.468 58.68C125.919 57.784 126.644 56.376 126.644 54.456C126.644 53.048 126.217 52.024 125.364 51.384C124.511 50.744 123.38 50.36 121.972 50.232C120.564 50.0613 119.049 49.976 117.428 49.976H101.492V59.96ZM101.492 43.128H116.532C119.22 43.128 121.289 42.744 122.74 41.976C124.191 41.1653 124.916 39.8 124.916 37.88C124.916 35.96 124.191 34.616 122.74 33.848C121.289 33.0373 119.369 32.632 116.98 32.632H101.492V43.128ZM149.007 57.976V50.872H176.399V57.976H149.007ZM138.703 67L158.159 25.592H167.375L187.023 67H177.743L160.719 29.688H164.815L147.919 67H138.703ZM193.043 67V25.592H216.915C222.461 25.592 226.664 26.5307 229.523 28.408C232.424 30.2427 233.875 32.9947 233.875 36.664C233.875 39.0107 233.299 40.8667 232.147 42.232C230.995 43.5547 229.352 44.536 227.219 45.176C225.128 45.816 222.653 46.2213 219.795 46.392L220.051 45.944C222.141 45.9867 224.104 46.136 225.939 46.392C227.816 46.648 229.459 47.1173 230.867 47.8C232.275 48.4827 233.384 49.4427 234.195 50.68C235.005 51.8747 235.411 53.4533 235.411 55.416C235.411 57.976 234.728 60.1093 233.363 61.816C231.997 63.48 230.099 64.7387 227.667 65.592C225.235 66.4453 222.419 66.9147 219.219 67H193.043ZM201.555 59.96H218.323C221.011 59.96 223.08 59.5333 224.531 58.68C225.981 57.784 226.707 56.376 226.707 54.456C226.707 53.048 226.28 52.024 225.427 51.384C224.573 50.744 223.443 50.36 222.035 50.232C220.627 50.0613 219.112 49.976 217.491 49.976H201.555V59.96ZM201.555 43.128H216.595C219.283 43.128 221.352 42.744 222.803 41.976C224.253 41.1653 224.979 39.8 224.979 37.88C224.979 35.96 224.253 34.616 222.803 33.848C221.352 33.0373 219.432 32.632 217.043 32.632H201.555V43.128ZM244.196 25.592H252.708V67H244.196V25.592ZM287.41 25.592C292.061 25.592 295.943 26.1467 299.058 27.256C302.173 28.3653 304.647 29.88 306.482 31.8C308.359 33.6773 309.682 35.8533 310.45 38.328C311.261 40.8027 311.666 43.4053 311.666 46.136C311.666 48.8667 311.218 51.4907 310.322 54.008C309.469 56.5253 308.082 58.7653 306.162 60.728C304.285 62.648 301.789 64.184 298.674 65.336C295.602 66.4453 291.847 67 287.41 67H263.73V25.592H287.41ZM272.242 59.704H287.218C290.29 59.704 292.829 59.3413 294.834 58.616C296.882 57.848 298.503 56.824 299.698 55.544C300.893 54.264 301.746 52.8133 302.258 51.192C302.77 49.5707 303.026 47.8853 303.026 46.136C303.026 44.3867 302.77 42.7227 302.258 41.144C301.746 39.5653 300.893 38.1573 299.698 36.92C298.503 35.6827 296.882 34.7013 294.834 33.976C292.829 33.2507 290.29 32.888 287.218 32.888H272.242V59.704ZM321.196 25.592H329.708V67H321.196V25.592Z" fill="black"/>
</svg>
